# xmcd
#
# Track frame offsets:
#	150
#	11357
#	18821
#	25774
#	37099
#	47441
#	59193
#	65005
#	79773
#	92082
#	104357
#	111767
#	120141
#	128687
#	135952
#	141025
#	145220
#	147865
#
# Disc length: 2181 seconds
#
# Revision: 2
# Processed by: cddbd v1.5.2PL0 Copyright (c) Steve Scherf et al.
# Submitted via: EZCDAudioConverter 2.1.7.1
#
DISCID=ec088312
DTITLE=Alejandro Jodorowsky - El Topo
DYEAR=1971
DGENRE=
TTITLE0=Entierro Del Primer Juguete (Burial Of The First Toy)
TTITLE1=Bajo Tierra (Under The Sun)
TTITLE2=La Catedral De Los Puercos (The Pigs Monastery)
TTITLE3=Los Mendigos Sangrados (The Holy Beggars)
TTITLE4=La Muerte Es Un Nacimiento (Death Is Birth)
TTITLE5=Curios Mexicano (Mexican Curios)
TTITLE6=El Agua Viva (Living Water)
TTITLE7=Vals Fantasma 
TTITLE8=El Alma Nace En La Sangre (The Soul Born In The Blood)
TTITLE9=Topo Triste
TTITLE10=Los Dióses De Azúcar (The Sugar Gods)
TTITLE11=Las Flores Nacen En El Barro (Flowers Born In The Mud)
TTITLE12=El Infierno De Los Angeles Prostitutos (The Hell Of The Prostituted A
TTITLE12=ngels)
TTITLE13=Marcha De Los Ojos En El Triángulos (March Of The Eyes In The Triangl
TTITLE13=es)
TTITLE14=La Miel Del Dolor (The Pain Of The Honey)
TTITLE15=300 Conejos (300 Rabbits)
TTITLE16=Conocimiento A Través De La Música (Knowledge Through Music)
TTITLE17=La Primera Flor Después Del Diluvio (The First Flower After The Flood
TTITLE17=)
EXTD=
EXTT0=
EXTT1=
EXTT2=
EXTT3=
EXTT4=
EXTT5=
EXTT6=
EXTT7=
EXTT8=
EXTT9=
EXTT10=
EXTT11=
EXTT12=
EXTT13=
EXTT14=
EXTT15=
EXTT16=
EXTT17=
PLAYORDER=
